<svg xmlns="http://www.w3.org/2000/svg" viewBox="0 0 400 261.905">
  <path
    fill="currentColor"
    d="M157.912 3.812c-2.193 5.714 3.539 8.016 20.064 8.056 18.395.045 18.661-1.47-4.226 24.056-26.227 29.252-25.283 31.147 15.063 30.22 28.075-.646 29.07-.847 29.805-6.025.843-5.938-1.699-6.503-25.166-5.589-16.119.628-15.93-1.261 2.075-20.832C224.937 1.733 224.494 0 186.905 0c-23.047 0-27.769.621-28.993 3.812M99.405 75.638c-10.348 2.24-4.018 7.695 8.928 7.695 16.351 0 16.303.743-1.327 20.196-19.697 21.736-18.88 23.676 10.325 24.534 19.389.569 23.467.06 24.671-3.079 2.158-5.623-.517-7.009-16.059-8.317l-14.142-1.191 14.338-15.861c7.885-8.724 14.337-17.469 14.337-19.434 0-5.409-24.534-8.123-41.071-4.543m-71.218 72.576c-7.4 5.992-28.714 39.835-27.341 43.413 1.007 2.624 4.978 3.611 14.524 3.611 12.724 0 13.245.258 16.565 8.203 1.885 4.512 5.65 9.591 8.365 11.287 8.415 5.256 5.594 6.701-13.085 6.701-17.328 0-17.993.206-17.262 5.357.741 5.214 1.617 5.375 32.866 6.025 31.823.662 32.168.729 39.286 7.592 10.814 10.427 41.156 19.121 66.731 19.121 18.647 0 32.157-18.25 28.191-38.082l-1.555-7.774 24.764 1.467c13.62.806 56.371 2.053 95.002 2.769 80.099 1.485 90.162 2.316 92.192 7.607 3.675 9.577-2.812 10.203-105.602 10.203-96.477 0-105.883.707-99.143 7.447 1.373 1.373 42.586 2.214 104.33 2.128 114.752-.16 112.985.12 112.985-17.908 0-16.662-5.595-18.483-60.683-19.755-26.862-.62-48.841-1.556-48.841-2.08 0-.523 1.7-3.545 3.777-6.716 8.222-12.548-2.709-14.498-12.781-2.279-6.805 8.256-7.327 8.439-22.032 7.738l-15.061-.718 22.989-17.261c27.768-20.851 27.745-20.849 38.777-2.977 8.361 13.546 15.161 17.881 18.804 11.988 2.457-3.976-17.338-32.644-24.625-35.663-7.737-3.205-16.941-1.519-23.303 4.268-2.421 2.202-15.473 12.391-29.005 22.642l-24.604 18.639-27.182-1.699c-18.94-1.183-27.182-2.582-27.182-4.615 0-10.04-16.977-13.794-26.94-5.957-5.318 4.182-8.23 4.628-21.427 3.275-10.59-1.084-15.8-.712-16.991 1.217-3.271 5.291 3.812 9.374 19.101 11.012 13.637 1.46 15.516 2.291 16.806 7.427 2.025 8.072 1.089 8.357-14.295 4.35-16.375-4.265-22.081-4.455-24.335-.808-2.743 4.438 5.067 8.356 27.91 14 26.555 6.561 27.586 5.884 23.368-15.337-1.708-8.593-2.422-16.307-1.587-17.142 7.005-7.006 18.579 25.201 13.136 36.557-8.754 18.267-64.871 9.852-77.972-11.692l-4.427-7.28 6.921-10.914c8.147-12.846 8.625-19.922 2.196-32.53-6.137-12.037-5.083-12.572 4.761-2.416 8.638 8.912 16.632 10.931 16.632 4.2 0-2.254-6.127-10.29-13.616-17.857l-13.616-13.76H58.268c-17.577 0-27.634.995-30.081 2.976m43.242 11.246c0 1.275-2.357 7.167-5.237 13.095l-5.236 10.778H40.002c-11.525 0-20.954-.464-20.954-1.032 0-.568 3.374-6.461 7.498-13.095l7.499-12.063h18.692c10.531 0 18.692 1.012 18.692 2.317m11.904 29.209c0 16.251-17.921 27.113-31.577 19.137-12.698-7.416-11.436-12.18 3.452-13.034 11.907-.682 12.928-1.249 17.411-9.666 5.015-9.416 10.714-7.521 10.714 3.563m-73.38 54.783c1.4 9.853 66.237 9.226 66.237-.64 0-4.478-1.694-4.717-33.498-4.717-33.378 0-33.497.02-32.739 5.357"
    fill-rule="evenodd"/>
</svg>
